<svg width="36" height="29" viewBox="0 0 36 29" fill="none" xmlns="http://www.w3.org/2000/svg">
<path fill-rule="evenodd" clip-rule="evenodd" d="M12.4838 25.0849C12.4838 24.3806 13.0206 23.8735 13.6754 23.8391C14.7472 23.7828 15.3471 25.1167 14.5984 25.9214C13.8883 26.6846 12.4838 26.1864 12.4838 25.0849H12.4838ZM27.8586 25.0849C27.8586 24.653 28.0807 24.2995 28.3762 24.0788C28.4236 24.0434 28.5168 23.9799 28.5601 23.9572C29.2189 23.613 30.3115 24.0234 30.3115 25.0849C30.3115 25.8562 29.5077 26.5742 28.5883 26.1846C28.1687 26.0068 27.8585 25.5236 27.8585 25.0849H27.8586ZM23.8725 16.5352H18.9228C18.9228 15.9507 18.7997 15.3375 18.7917 14.7556C18.7833 14.1546 18.66 13.671 18.66 12.933H24.1353C24.1353 13.7862 23.8725 15.6437 23.8725 16.5352V16.5352ZM11.5202 12.9331H17.2583C17.3571 14.1094 17.4665 15.3634 17.5649 16.5352H12.878L11.5202 12.9331ZM29.9173 16.5352H25.2304L25.3644 14.7584C25.41 14.1699 25.4932 13.5732 25.4932 12.9331H31.1438C31.0833 13.058 31.0544 13.2149 31.0072 13.3619L30.142 16.1502C30.0994 16.2908 30.0667 16.5352 29.9173 16.5352ZM24.2667 11.5443H18.5286L18.3852 9.51641C18.3446 9.21603 18.3258 8.85304 18.3092 8.50667C18.2941 8.1927 18.222 7.7954 18.222 7.46472H24.5733L24.3358 10.4844C24.289 10.7958 24.2667 11.2178 24.2667 11.5443H24.2667ZM31.5818 11.5443H25.6246L25.8502 8.51279C25.8832 8.20856 25.9312 7.80658 25.9312 7.46472H32.8083L32.5173 8.47848C32.4095 8.83833 32.3061 9.16918 32.2006 9.51002L31.5818 11.5443ZM9.46139 7.46472H16.8641C16.8641 8.57474 17.1028 10.0704 17.1273 11.0231C17.1334 11.2594 17.1667 11.3658 17.1707 11.5443H11.0821C10.9186 11.5443 10.8755 11.2521 10.8193 11.1103L9.64325 8.02233C9.57325 7.836 9.48766 7.66752 9.46142 7.46469L9.46139 7.46472ZM0 1.21518C0 1.72332 0.0777943 2.09166 0.530631 2.42541C0.909375 2.70454 1.11945 2.69081 1.7521 2.69078C2.74495 2.69067 3.73783 2.69078 4.73068 2.69078L11.6902 20.967C11.7568 21.1491 11.8724 21.3913 11.9143 21.5695C11.6284 21.7593 11.4122 21.8753 11.1388 22.1031C10.4476 22.6789 9.81182 23.8205 9.81182 24.8245C9.81182 26.0753 10.0581 26.9564 10.9616 27.8517C11.3031 28.19 11.5726 28.3879 12.0306 28.6152C13.0277 29.11 14.3635 29.1262 15.3607 28.6297C15.845 28.3887 16.0745 28.2325 16.437 27.8733C17.0488 27.2671 17.6087 26.2909 17.6087 25.3887C17.6087 24.4346 17.6501 24.7476 17.4335 23.8263H25.3618C25.3475 23.997 25.2861 24.0928 25.2486 24.2784C24.9821 25.5969 25.4318 26.9606 26.3363 27.8517C26.6483 28.1591 26.9816 28.4153 27.4052 28.6155C29.5819 29.6439 32.123 28.5433 32.8684 26.0993C33.1048 25.3242 33.0082 24.4449 32.7594 23.7011C32.3153 22.3727 31.09 21.4224 29.655 21.1784C29.0664 21.0783 22.9229 21.1356 22.1642 21.1356C19.6528 21.1356 17.1414 21.1356 14.6301 21.1356C14.5897 20.9639 14.5332 20.852 14.4672 20.6894C14.4012 20.527 14.34 20.3606 14.2863 20.2176L13.9293 19.2694C19.0688 19.2694 24.2083 19.2694 29.3478 19.2694C30.0431 19.2694 30.9284 19.3566 31.4797 19.1682C32.1506 18.939 32.2557 18.365 32.4083 17.9183C32.9282 16.3973 33.4422 14.4768 33.9632 12.9055L35.5185 7.89319C35.8662 6.76952 36.4828 5.68781 35.3424 4.95389C34.9557 4.70497 34.3469 4.77395 33.7281 4.77395C25.2888 4.77395 16.8495 4.77395 8.41014 4.77395C8.31895 4.58562 8.2457 4.32657 8.1604 4.11001L6.8782 0.780039C6.76401 0.547547 6.66682 0.43822 6.47068 0.272429C6.3226 0.147273 6.0378 0 5.78196 0H1.22648C0.631911 0 0 0.626093 0 1.21518Z" fill="white"/>
</svg>
