<svg width="40" height="40" viewBox="0 0 40 40" fill="none" xmlns="http://www.w3.org/2000/svg">
<path d="M21.9701 0.835366C23.3688 0.829999 24.7675 0.844056 26.1657 0.877533L26.5376 0.890949C26.9669 0.906283 27.3905 0.925449 27.9022 0.948449C29.9416 1.04428 31.3331 1.36628 32.554 1.8397C33.819 2.32653 34.8846 2.98587 35.9503 4.05153C36.9247 5.00911 37.6788 6.16743 38.1602 7.44595C38.6336 8.66687 38.9556 10.0603 39.0515 12.0996C39.0745 12.6094 39.0936 13.0349 39.109 13.4643L39.1205 13.8361C39.1545 15.2337 39.1692 16.6318 39.1646 18.0298L39.1665 19.4596V21.9704C39.1712 23.3691 39.1565 24.7678 39.1224 26.166L39.1109 26.5379C39.0956 26.9672 39.0764 27.3908 39.0534 27.9025C38.9576 29.9419 38.6317 31.3334 38.1602 32.5543C37.6804 33.8342 36.9261 34.9934 35.9503 35.9506C34.9919 36.9249 33.833 37.679 32.554 38.1605C31.3331 38.6339 29.9416 38.956 27.9022 39.0518C27.3905 39.0748 26.9669 39.0939 26.5376 39.1093L26.1657 39.1208C24.7675 39.1549 23.3688 39.1696 21.9701 39.1649L20.5403 39.1668H18.0314C16.6327 39.1715 15.2341 39.1568 13.8358 39.1227L13.464 39.1112C13.009 39.0947 12.5541 39.0755 12.0993 39.0537C10.06 38.9579 8.66847 38.632 7.44564 38.1605C6.16661 37.6801 5.00809 36.9259 4.05122 35.9506C3.07572 34.9928 2.3209 33.8338 1.83939 32.5543C1.36597 31.3334 1.04397 29.9419 0.948137 27.9025C0.926791 27.4477 0.907624 26.9928 0.890637 26.5379L0.881054 26.166C0.845718 24.7678 0.829744 23.3691 0.833137 21.9704V18.0298C0.827788 16.6318 0.841845 15.2337 0.875304 13.8361L0.888721 13.4643C0.904054 13.0349 0.923221 12.6094 0.946221 12.0996C1.04205 10.0584 1.36405 8.66878 1.83747 7.44595C2.31927 6.1668 3.07557 5.0088 4.05314 4.05345C5.00935 3.07739 6.16715 2.32188 7.44564 1.8397C8.66847 1.36628 10.0581 1.04428 12.0993 0.948449L13.464 0.890949L13.8358 0.881366C15.2334 0.846048 16.6314 0.830074 18.0295 0.83345L21.9701 0.835366ZM19.9998 10.4187C18.73 10.4007 17.4693 10.6353 16.291 11.1088C15.1127 11.5823 14.0402 12.2853 13.1359 13.1769C12.2316 14.0685 11.5136 15.1309 11.0235 16.3024C10.5333 17.4739 10.2809 18.7312 10.2809 20.0011C10.2809 21.271 10.5333 22.5282 11.0235 23.6997C11.5136 24.8713 12.2316 25.9337 13.1359 26.8253C14.0402 27.7168 15.1127 28.4198 16.291 28.8933C17.4693 29.3668 18.73 29.6014 19.9998 29.5835C22.5415 29.5835 24.979 28.5738 26.7762 26.7766C28.5735 24.9793 29.5831 22.5418 29.5831 20.0001C29.5831 17.4585 28.5735 15.0209 26.7762 13.2237C24.979 11.4265 22.5415 10.4187 19.9998 10.4187ZM19.9998 14.252C20.7636 14.238 21.5226 14.3762 22.2323 14.6588C22.9421 14.9413 23.5884 15.3624 24.1336 15.8976C24.6788 16.4327 25.1119 17.0711 25.4076 17.7755C25.7033 18.4799 25.8556 19.2362 25.8557 20.0001C25.8559 20.764 25.7038 21.5203 25.4083 22.2248C25.1129 22.9293 24.68 23.5679 24.135 24.1032C23.59 24.6385 22.9438 25.0599 22.2341 25.3426C21.5244 25.6254 20.7655 25.7639 20.0017 25.7501C18.4767 25.7501 17.0142 25.1443 15.9359 24.066C14.8575 22.9876 14.2517 21.5251 14.2517 20.0001C14.2517 18.4751 14.8575 17.0126 15.9359 15.9343C17.0142 14.8559 18.4767 14.2501 20.0017 14.2501L19.9998 14.252ZM30.0623 7.5437C29.444 7.56845 28.8592 7.83149 28.4305 8.27773C28.0017 8.72397 27.7623 9.31879 27.7623 9.93762C27.7623 10.5564 28.0017 11.1513 28.4305 11.5975C28.8592 12.0437 29.444 12.3068 30.0623 12.3315C30.6977 12.3315 31.3071 12.0791 31.7564 11.6298C32.2057 11.1805 32.4581 10.5711 32.4581 9.9357C32.4581 9.30028 32.2057 8.6909 31.7564 8.24159C31.3071 7.79228 30.6977 7.53987 30.0623 7.53987V7.5437Z" fill="#AD0000"/>
</svg>
