<svg width="297" height="73" viewBox="0 0 297 73" fill="none" xmlns="http://www.w3.org/2000/svg">
<path fill-rule="evenodd" clip-rule="evenodd" d="M174.391 44.598L174.496 44.6782C196.919 61.8472 260.455 53.6627 276.942 32.1622L277.998 30.2483C278.12 29.8669 278.022 28.7635 277.906 28.422C277.68 28.4077 277.505 28.4022 277.269 28.3981C277.145 28.3958 277.084 28.3885 276.951 28.3857L276.571 28.3917C275.54 28.4559 273.624 30.1823 272.77 30.8135C248.348 48.9328 212.992 51.537 182.951 43.6358C181.346 43.3305 175.075 41.6619 174.485 42.4306L174.01 43.0504C173.896 43.253 173.867 43.4717 173.943 43.8966C173.996 44.1932 174.07 44.3523 174.391 44.598H174.391Z" fill="#FF3B9A"/>
<path fill-rule="evenodd" clip-rule="evenodd" d="M252.571 24.7971C253.049 25.1634 253.65 25.6016 254.145 25.6662L255.92 25.6681C256.205 25.664 256.261 25.6617 256.549 25.6337C258.478 25.3238 291.291 18.5613 291.505 18.575C285.845 25.956 282.195 32.0391 284.576 40.6862C284.783 41.438 284.893 41.372 285.706 41.9945C286.37 41.4838 286.196 42.2315 287.264 40.8384C287.496 40.5358 287.569 40.3923 287.704 40.0829C287.787 39.8949 287.951 39.5259 288.043 39.2775C292.816 23.6469 288.505 31.434 296.235 16.9367C297.013 15.7288 297.265 15.6352 296.673 15.1461L295.92 14.5694C295.042 13.8965 260.714 20.8176 257.354 21.6473C256.365 21.8912 254.948 22.3272 254.02 22.8085C253.142 23.2642 253.089 23.5374 252.504 24.2979C252.378 24.4629 252.405 24.6697 252.571 24.7966V24.7971Z" fill="#FF3B9A"/>
<path d="M5.48873 72.2739V68.977C4.83337 69.2277 4.16929 69.3547 3.502 69.3547C2.3573 69.3547 1.56435 69.093 1.12086 68.5695C0.677382 68.0464 0.456787 67.1126 0.456787 65.7672V63.8661H2.10552V66.0633C2.10552 66.9041 2.22567 67.478 2.46874 67.7847C2.7086 68.0918 3.1585 68.2449 3.81661 68.2449C4.43758 68.2449 4.99297 68.1147 5.48827 67.8585V63.8661H7.13654V72.2739H5.48827H5.48873ZM17.6352 72.2739V65.1988H14.3208V63.8661H22.5979V65.1988H19.2835V72.2739H17.6352ZM33.408 72.4646C32.0715 72.4646 31.0126 72.0708 30.2343 71.2824C29.4528 70.4943 29.0639 69.4235 29.0639 68.073C29.0639 66.7244 29.4533 65.6562 30.2343 64.871C31.0126 64.0857 32.0715 63.6915 33.408 63.6915C34.7453 63.6915 35.8038 64.0853 36.5825 64.871C37.364 65.6562 37.7524 66.7244 37.7524 68.073C37.7524 69.4235 37.3635 70.4948 36.5825 71.2824C35.8038 72.0708 34.7453 72.4646 33.408 72.4646ZM33.4052 71.3227C34.2211 71.3227 34.8563 71.0394 35.3085 70.471C35.7584 69.9057 35.9835 69.104 35.9835 68.0735C35.9835 67.0448 35.7584 66.2467 35.3085 65.6801C34.8563 65.1172 34.2211 64.8343 33.4052 64.8343C32.5866 64.8343 31.9514 65.1172 31.5052 65.6801C31.0557 66.2467 30.8324 67.0448 30.8324 68.0735C30.8324 69.104 31.0557 69.9057 31.5052 70.471C31.9514 71.0394 32.5866 71.3227 33.4052 71.3227ZM46.712 65.7172C47.5618 64.4823 48.6694 63.8666 50.0374 63.8666C51.0734 63.8666 51.9118 64.2448 52.5451 65.0007C53.1771 65.7566 53.4945 66.756 53.4945 67.9992C53.4945 69.335 53.1028 70.4137 52.3213 71.2351C51.5371 72.0552 50.507 72.4651 49.2325 72.4651C46.4423 72.4651 45.0458 70.5796 45.0458 66.8119C45.0458 64.4433 45.432 62.7219 46.208 61.6511C46.9803 60.5802 48.2222 60.0434 49.9342 60.0434H50.286C51.1074 60.0434 51.8462 59.9059 52.4983 59.6309V60.8525C51.9806 61.0744 51.3082 61.1858 50.4841 61.1858H50.2837C49.0674 61.1858 48.2029 61.5131 47.6875 62.1668C47.1697 62.8223 46.8463 64.0046 46.712 65.7172ZM46.7289 66.7725L46.7202 67.037C46.7202 69.8952 47.5907 71.3232 49.3279 71.3232C50.0635 71.3232 50.6469 71.0321 51.0794 70.448C51.5114 69.8636 51.726 69.0783 51.726 68.0923C51.726 66.1963 51.0101 65.2473 49.5797 65.2473C48.5689 65.2473 47.6191 65.7548 46.7294 66.7725H46.7289ZM61.4372 72.2744V63.8666H63.086V67.2616H63.8844C66.3977 67.2616 67.6543 68.0758 67.6543 69.7073C67.6543 71.4176 66.3169 72.2744 63.6441 72.2744H61.4377H61.4372ZM68.8902 72.2744V63.8666H70.539V72.2744H68.8902ZM63.086 71.1325H63.7468C65.1727 71.1325 65.8849 70.6589 65.8849 69.7128C65.8849 69.2392 65.7239 68.9009 65.4043 68.7024C65.0805 68.5044 64.5393 68.404 63.7725 68.404H63.0855V71.1325H63.086ZM91.922 72.2744V65.1992H88.6076V63.8666H96.8847V65.1992H93.5703V72.2744H91.922ZM110.752 72.0048C109.644 72.312 108.696 72.4651 107.907 72.4651C106.559 72.4651 105.462 72.0525 104.618 71.2301C103.774 70.4077 103.35 69.3428 103.35 68.0308C103.35 66.7592 103.722 65.7149 104.469 64.8976C105.216 64.0834 106.172 63.6764 107.337 63.6764C108.439 63.6764 109.292 64.0385 109.893 64.7628C110.494 65.4876 110.795 66.5135 110.795 67.8433L110.786 68.3082H105.033C105.274 70.3179 106.335 71.3232 108.216 71.3232C108.905 71.3232 109.749 71.1435 110.752 70.7836V72.0048ZM105.119 67.1667H109.137C109.137 65.6012 108.504 64.8187 107.243 64.8187C105.972 64.8187 105.265 65.6012 105.119 67.1667ZM117.732 72.2748V70.9344C118.155 70.9156 118.487 70.7891 118.731 70.5567C118.974 70.3243 119.183 69.9296 119.363 69.3717C119.753 68.1688 119.947 66.612 119.947 64.695V63.8671H125.854V72.2748H124.206V65.009H121.544V65.1575C121.544 67.4945 121.238 69.2736 120.625 70.493C120.021 71.6803 119.059 72.2748 117.732 72.2748ZM138.213 72.4655C136.877 72.4655 135.818 72.0717 135.039 71.2833C134.258 70.4953 133.869 69.4244 133.869 68.0739C133.869 66.7253 134.258 65.6572 135.039 64.8719C135.818 64.0866 136.877 63.6924 138.213 63.6924C139.55 63.6924 140.609 64.0862 141.387 64.8719C142.169 65.6572 142.557 66.7253 142.557 68.0739C142.557 69.4244 142.169 70.4957 141.387 71.2833C140.609 72.0717 139.55 72.4655 138.213 72.4655ZM138.21 71.3236C139.026 71.3236 139.661 71.0403 140.113 70.4719C140.563 69.9067 140.789 69.1049 140.789 68.0744C140.789 67.0457 140.562 66.2476 140.113 65.681C139.661 65.1181 139.026 64.8352 138.21 64.8352C137.392 64.8352 136.756 65.1181 136.31 65.681C135.861 66.2476 135.637 67.0457 135.637 68.0744C135.637 69.1049 135.861 69.9067 136.31 70.4719C136.756 71.0403 137.392 71.3236 138.21 71.3236ZM160.098 72.2753V70.9349C160.521 70.9161 160.853 70.7896 161.097 70.5572C161.34 70.3247 161.549 69.93 161.729 69.3721C162.118 68.1693 162.313 66.6125 162.313 64.6954V63.8675H168.22V72.2753H166.572V65.0094H163.909V65.158C163.909 67.4949 163.603 69.2741 162.991 70.4934C162.387 71.6807 161.425 72.2753 160.098 72.2753ZM183.636 72.0057C182.527 72.3129 181.58 72.466 180.79 72.466C179.443 72.466 178.346 72.0534 177.502 71.231C176.657 70.4086 176.234 69.3437 176.234 68.0317C176.234 66.7601 176.606 65.7158 177.353 64.8985C178.1 64.0843 179.056 63.6773 180.22 63.6773C181.322 63.6773 182.175 64.0394 182.777 64.7637C183.378 65.4885 183.678 66.5144 183.678 67.8443L183.67 68.3091H177.917C178.157 70.3188 179.219 71.3241 181.1 71.3241C181.789 71.3241 182.633 71.1444 183.636 70.7845V72.0057ZM178.003 67.1676H182.021C182.021 65.6022 181.388 64.8196 180.126 64.8196C178.856 64.8196 178.149 65.6022 178.003 67.1676ZM193.724 72.2757V65.2006H190.41V63.868H198.687V65.2006H195.373V72.2757H193.724ZM212.554 72.0062C211.446 72.3133 210.498 72.4664 209.709 72.4664C208.361 72.4664 207.265 72.0539 206.42 71.2315C205.576 70.4091 205.152 69.3442 205.152 68.0322C205.152 66.7606 205.524 65.7163 206.271 64.899C207.018 64.0848 207.974 63.6777 209.139 63.6777C210.241 63.6777 211.094 64.0399 211.695 64.7642C212.296 65.4889 212.596 66.5149 212.596 67.8447L212.588 68.3095H206.836C207.076 70.3192 208.138 71.3245 210.018 71.3245C210.708 71.3245 211.552 71.1448 212.554 70.785V72.0062ZM206.921 67.1681H210.939C210.939 65.6026 210.306 64.8201 209.044 64.8201C207.774 64.8201 207.067 65.6026 206.921 67.1681ZM219.534 72.2762V70.9358C219.957 70.917 220.29 70.7905 220.533 70.5581C220.776 70.3256 220.985 69.931 221.165 69.3731C221.555 68.1702 221.749 66.6134 221.749 64.6963V63.8684H227.657V72.2762H226.008V65.0103H223.346V65.1589C223.346 67.4959 223.04 69.275 222.427 70.4943C221.823 71.6816 220.862 72.2762 219.534 72.2762ZM240.015 72.4669C238.679 72.4669 237.62 72.0731 236.842 71.2847C236.06 70.4966 235.671 69.4258 235.671 68.0753C235.671 66.7266 236.061 65.6585 236.842 64.8733C237.62 64.088 238.679 63.6938 240.015 63.6938C241.352 63.6938 242.411 64.0876 243.189 64.8733C243.971 65.6585 244.359 66.7266 244.359 68.0753C244.359 69.4258 243.97 70.4971 243.189 71.2847C242.411 72.0731 241.352 72.4669 240.015 72.4669ZM240.013 71.325C240.828 71.325 241.464 71.0417 241.915 70.4733C242.365 69.908 242.591 69.1063 242.591 68.0758C242.591 67.0471 242.365 66.249 241.915 65.6824C241.464 65.1194 240.828 64.8366 240.013 64.8366C239.194 64.8366 238.558 65.1194 238.112 65.6824C237.663 66.249 237.44 67.0471 237.44 68.0758C237.44 69.1063 237.663 69.908 238.112 70.4733C238.558 71.0417 239.194 71.325 240.013 71.325Z" fill="url(#paint0_linear_3411_213)"/>
<path d="M36.7063 27.9825C36.1614 29.2477 35.4175 30.3493 34.4742 31.2863C33.5303 32.2242 32.4778 32.9737 31.3161 33.5362C30.1544 34.0986 28.8795 34.5204 27.4894 34.8014C26.0998 35.0828 24.6547 35.2236 23.1541 35.2236H8.66503C7.16444 35.2236 5.81198 35.0709 4.60719 34.7661C3.4024 34.4622 2.41683 34.0047 1.64911 33.3954C0.881385 32.7867 0.375071 32.0362 0.129711 31.146C-0.115649 30.2558 -0.0129188 29.1776 0.437902 27.9119L10.3812 0.000916827H11.436C14.7188 0.000916827 17.0958 0.633986 18.567 1.89921C20.0387 3.16489 20.3492 4.99258 19.4976 7.38321L12.1592 27.9829H36.7067L36.7063 27.9825ZM67.7266 24.8185H50.916L49.138 29.8097H75.7254C75.3915 30.7476 74.904 31.5558 74.2633 32.2352C73.6226 32.915 72.8595 33.4775 71.9748 33.9226C71.0888 34.3682 70.1165 34.6964 69.0562 34.9068C67.9963 35.1181 66.9039 35.2236 65.7784 35.2236H46.2955C45.2168 35.2236 44.2427 35.0948 43.3736 34.8371C42.5036 34.5791 41.7932 34.2041 41.2424 33.7117C40.6903 33.2199 40.3206 32.6459 40.1326 31.9895C39.9445 31.333 40.0005 30.5835 40.3009 29.74L45.8112 14.2727C46.0946 13.476 46.5688 12.7379 47.2329 12.0581C47.897 11.3783 48.6762 10.8039 49.57 10.3354C50.4634 9.86689 51.4412 9.49191 52.5029 9.2109C53.5646 8.92944 54.6111 8.7887 55.6421 8.7887H75.1961C77.6346 8.7887 79.4095 9.26912 80.5207 10.23C81.6319 11.1908 81.8699 12.5614 81.2361 14.3428H54.6487L52.8954 19.2644H69.706L67.7271 24.8185H67.7266ZM137.773 1.54715C137.238 3.04708 136.477 4.1954 135.49 4.99212C134.503 5.78885 133.447 6.35178 132.322 6.67954C131.197 7.00731 130.083 7.20672 128.979 7.27686C127.876 7.34745 126.925 7.38229 126.128 7.38229H117.899L110.585 27.9114C109.651 30.5363 108.384 32.4117 106.788 33.5362C105.192 34.6606 102.776 35.2236 99.5405 35.2236H96.0939L106.012 7.38229H87.9352L88.286 6.39808C89.1711 3.91393 90.4874 2.22651 92.2347 1.33582C93.9816 0.446036 96.1687 0 98.7943 0H138.324L137.773 1.54669V1.54715ZM159.376 24.8185H142.565L140.787 29.8097H167.374C167.041 30.7476 166.554 31.5558 165.912 32.2352C165.272 32.915 164.509 33.4775 163.624 33.9226C162.738 34.3682 161.766 34.6964 160.705 34.9068C159.645 35.1181 158.553 35.2236 157.428 35.2236H137.945C136.866 35.2236 135.892 35.0948 135.023 34.8371C134.153 34.5791 133.442 34.2041 132.892 33.7117C132.339 33.2199 131.97 32.6459 131.782 31.9895C131.594 31.333 131.65 30.5835 131.95 29.74L137.46 14.2727C137.744 13.476 138.218 12.7379 138.882 12.0581C139.546 11.3783 140.325 10.8039 141.219 10.3354C142.113 9.86689 143.09 9.49191 144.152 9.2109C145.214 8.92944 146.26 8.7887 147.291 8.7887H166.845C169.284 8.7887 171.059 9.26912 172.17 10.23C173.281 11.1908 173.52 12.5614 172.885 14.3428H146.298L144.545 19.2644H161.355L159.376 24.8185H159.376ZM198.815 29.8097C198.434 30.7476 197.884 31.5677 197.164 32.2709C196.445 32.9737 195.658 33.5362 194.805 33.9579C193.952 34.3796 192.995 34.6964 191.935 34.9068C190.875 35.1181 189.782 35.2236 188.657 35.2236H177.825C176.7 35.2236 175.686 35.1062 174.785 34.8715C173.884 34.6373 173.137 34.2971 172.545 33.852C171.954 33.4073 171.568 32.8449 171.388 32.165C171.209 31.4852 171.286 30.677 171.619 29.7396L179.083 8.78825H179.927C182.365 8.78825 184.14 9.26866 185.252 10.2295C186.363 11.1903 186.601 12.561 185.967 14.3424L180.457 29.8093H198.815V29.8097ZM238.46 29.8808C238.126 30.8178 237.631 31.615 236.975 32.2709C236.319 32.9269 235.56 33.4775 234.698 33.9226C233.837 34.3682 232.876 34.6964 231.815 34.9068C230.755 35.1181 229.663 35.2236 228.538 35.2236H208.983C207.905 35.2236 206.932 35.0948 206.062 34.8371C205.192 34.5791 204.494 34.2041 203.966 33.7117C203.438 33.2199 203.076 32.6574 202.879 32.0248C202.682 31.3917 202.734 30.6541 203.035 29.8097L208.595 14.2021C208.879 13.4054 209.353 12.6669 210.017 11.9871C210.681 11.3081 211.449 10.7342 212.318 10.2648C213.189 9.7963 214.151 9.43278 215.204 9.17515C216.257 8.91752 217.323 8.7887 218.401 8.7887H237.955C240.346 8.7887 242.113 9.25766 243.257 10.1947C244.4 11.1321 244.654 12.4918 244.019 14.2727L238.459 29.8808H238.46ZM235.203 14.3428H217.408L211.898 29.8097H229.693L235.203 14.3428Z" fill="url(#paint1_linear_3411_213)"/>
<defs>
<linearGradient id="paint0_linear_3411_213" x1="121.851" y1="75.0931" x2="122.966" y2="57.0018" gradientUnits="userSpaceOnUse">
<stop stop-color="#737373"/>
<stop offset="0.501961" stop-color="#0ABAB5"/>
<stop offset="1" stop-color="#5C5C5C"/>
</linearGradient>
<linearGradient id="paint1_linear_3411_213" x1="119.468" y1="43.2774" x2="127.462" y2="-8.05449" gradientUnits="userSpaceOnUse">
<stop stop-color="#737373"/>
<stop offset="0.521569" stop-color="#0ABAB5"/>
<stop offset="1" stop-color="#5C5C5C"/>
</linearGradient>
</defs>
</svg>
