<svg width="18" height="28" viewBox="0 0 18 28" fill="none" xmlns="http://www.w3.org/2000/svg">
<path d="M9.1665 0.668457C4.6092 0.668457 0.916504 4.34631 0.916504 8.90196C0.916504 16.7791 9.1665 27.052 9.1665 27.052C9.1665 27.052 17.4165 16.7774 17.4165 8.90196C17.4165 4.34796 13.7238 0.668457 9.1665 0.668457ZM9.1665 13.4576C7.98496 13.4576 6.85182 12.9882 6.01634 12.1528C5.18087 11.3173 4.7115 10.1841 4.7115 9.00261C4.7115 7.82107 5.18087 6.68792 6.01634 5.85245C6.85182 5.01697 7.98496 4.54761 9.1665 4.54761C10.348 4.54761 11.4812 5.01697 12.3167 5.85245C13.1521 6.68792 13.6215 7.82107 13.6215 9.00261C13.6215 10.1841 13.1521 11.3173 12.3167 12.1528C11.4812 12.9882 10.348 13.4576 9.1665 13.4576Z" fill="#563624"/>
</svg>
