<svg width="546" height="23" viewBox="0 0 546 23" fill="none" xmlns="http://www.w3.org/2000/svg">
<g clip-path="url(#clip0_531_15)">
<path d="M25.5856 0H33.1415L27.9323 22.9997H20.3764L21.8628 16.4346H7.52163C4.92772 16.4346 2.9525 16.0289 1.59847 15.2188C0.244449 14.4074 -0.249357 13.1908 0.117056 11.5686L2.73744 0H10.3381L7.71776 11.5686H22.9646L25.585 0L25.5856 0ZM68.4849 1.00981C68.2648 1.98122 67.8662 2.73953 67.2968 3.2598C66.7273 3.78006 66.0909 4.1493 65.3966 4.36175C64.7016 4.57293 63.9953 4.70796 63.2946 4.75211C62.5933 4.79563 61.9778 4.82058 61.4695 4.82058H56.1757L53.1404 18.2252C52.7525 19.9351 52.0878 21.1663 51.1538 21.8984C50.2217 22.6304 48.7062 23.0003 46.6301 23.0003H44.4133L48.5302 4.82058H36.9021L37.0485 4.17745C37.4149 2.55651 38.1269 1.452 39.1763 0.872223C40.2257 0.293087 41.5993 0.000639929 43.2876 0.000639929H68.7139L68.4849 1.01045V1.00981ZM100.879 18.3634C100.692 19.1876 100.353 19.8871 99.8627 20.4534C99.3733 21.0197 98.7736 21.4946 98.0691 21.876C97.3647 22.2586 96.5688 22.5421 95.6827 22.7251C94.7979 22.9082 93.8702 23.0003 92.9059 23.0003H76.1664C75.2323 23.0003 74.3803 22.8851 73.6197 22.6567C72.8567 22.4276 72.2134 22.1057 71.6887 21.6923C71.164 21.2802 70.7931 20.7881 70.5749 20.223C70.3561 19.6567 70.329 19.0065 70.4961 18.2719L73.5743 4.683C73.7263 4.00979 74.0448 3.37498 74.5254 2.77793C75.0072 2.1828 75.6051 1.67533 76.3158 1.26322C77.0278 0.849825 77.8162 0.53562 78.6789 0.321884C79.5404 0.108148 80.441 0.000639929 81.3762 0.000639929H98.1158C100.167 0.000639929 101.742 0.406355 102.839 1.21714C103.937 2.02729 104.31 3.215 103.956 4.77515L100.879 18.3634ZM96.3897 4.82058H81.0981L78.052 18.2719H93.3436L96.3897 4.82058ZM139.289 18.5931C139.012 19.8154 138.18 20.8585 136.795 21.7153C135.41 22.5722 133.373 23.0003 130.69 23.0003H114.629C113.725 23.0003 112.889 22.8851 112.128 22.6567C111.365 22.4276 110.722 22.1044 110.197 21.6923C109.674 21.2789 109.294 20.7887 109.06 20.223C108.825 19.6567 108.792 19.0065 108.959 18.2719L112.016 4.77515C112.231 3.82613 112.642 3.04414 113.247 2.43365C113.853 1.82124 114.56 1.33105 115.367 0.964372C116.173 0.597053 117.046 0.344282 117.981 0.207337C118.916 0.0697522 119.807 0 120.653 0H143.501L143.407 0.413394C143.227 1.20819 142.857 1.87499 142.299 2.41125C141.74 2.94687 141.056 3.39802 140.25 3.7647C139.444 4.13138 138.568 4.40015 137.625 4.56845C136.681 4.73675 135.757 4.82122 134.852 4.82122H119.561L118.595 9.09083H134.7C135.576 9.09083 136.402 9.16762 137.182 9.32056C137.962 9.4735 138.631 9.75763 139.211 10.1467C140.358 10.9191 140.804 11.9078 140.527 13.1301L139.29 18.5938L139.289 18.5931ZM132.784 13.9562H117.492L116.514 18.2725H131.806L132.784 13.9562ZM178.811 13.9108L177.844 18.1804C177.491 19.7399 176.579 20.9359 175.111 21.7614C173.643 22.5876 171.88 23.001 169.831 23.001H146.349L151.558 0.00127986H152.328C153.202 0.00127986 154.048 0.0633529 154.865 0.184299C155.682 0.305886 156.381 0.562497 156.95 0.965012C158.07 1.75532 158.382 3.23164 157.898 5.3722L154.996 18.1804H170.243L171.21 13.9108H163.429C162.645 13.9108 162.001 13.7501 161.502 13.4295C161.001 13.1083 160.629 12.7173 160.386 12.2585C160.144 11.8009 160.007 11.2717 159.977 10.6753C159.946 10.0789 159.987 9.5343 160.097 9.04539H171.407C174.001 9.04539 175.975 9.45175 177.331 10.2619C178.684 11.072 179.179 12.2898 178.811 13.9108ZM193.001 0.000639929L187.792 23.0003H180.236L184.364 4.77515C184.53 4.03987 184.86 3.38138 185.354 2.80033C185.847 2.21927 186.451 1.72141 187.162 1.30929C187.873 0.8959 188.664 0.574016 189.53 0.344922C190.396 0.115827 191.282 0 192.187 0H193.001V0.000639929Z" fill="#AD0000"/>
</g>
<g clip-path="url(#clip1_531_15)">
<path d="M239.249 1.00925C239.072 1.98969 238.711 2.73909 238.167 3.25943C237.623 3.7801 237.009 4.14652 236.324 4.36134C235.641 4.57484 234.949 4.70526 234.25 4.7516C233.553 4.79728 232.949 4.81979 232.438 4.81979H227.173L224.743 18.2245C224.433 19.9391 223.828 21.1635 222.93 21.8977C222.033 22.6318 220.547 22.9996 218.477 22.9996H216.272L219.567 4.82012H208L208.116 4.17697C208.41 2.55571 209.067 1.45379 210.088 0.871554C211.108 0.290308 212.459 -0.000314552 214.138 -0.000314552H239.432L239.248 1.00925H239.249ZM261.477 13.9552H247.121L246.338 18.2712H269.066C268.916 19.0974 268.615 19.809 268.162 20.4055C267.708 21.003 267.133 21.4922 266.433 21.8748C265.732 22.2578 264.954 22.5408 264.096 22.7239C263.238 22.9072 262.328 22.9993 261.368 22.9993H244.716C243.786 22.9993 242.937 22.8844 242.169 22.6553C241.4 22.4253 240.744 22.1046 240.205 21.6911C239.664 21.278 239.267 20.7802 239.012 20.199C238.758 19.6167 238.697 18.9593 238.831 18.2242L241.268 4.77378C241.396 4.07006 241.691 3.42691 242.157 2.84567C242.623 2.26442 243.2 1.76659 243.891 1.3535C244.58 0.940403 245.353 0.611714 246.208 0.36677C247.063 0.121826 247.939 -0.000976562 248.839 -0.000976562H265.536C267.606 -0.000976562 269.19 0.412118 270.285 1.23864C271.38 2.06483 271.787 3.2591 271.505 4.81945H248.777L248.003 9.08876H262.359L261.478 13.9545L261.477 13.9552ZM296.765 5.93362C294.438 6.1309 280.659 10.7107 278.426 22.9996H270.909C273.566 12.2396 284.909 -0.000314552 298.054 0.0235178C301.018 0.0288139 301.565 -0.000314552 305.41 -0.000314552L301.243 22.9996H293.637L296.765 5.93362H296.765ZM335.028 18.3625C334.879 19.1887 334.572 19.8852 334.109 20.4522C333.647 21.0182 333.073 21.4922 332.389 21.8748C331.703 22.2578 330.925 22.5408 330.052 22.7239C329.179 22.9072 328.262 22.9993 327.302 22.9993H310.65C309.72 22.9993 308.87 22.8844 308.102 22.6553C307.333 22.4253 306.678 22.1046 306.138 21.6911C305.598 21.278 305.207 20.7878 304.964 20.2218C304.722 19.6558 304.668 19.005 304.8 18.2708L307.263 4.68176C307.385 4.00816 307.672 3.37395 308.126 2.77649C308.579 2.18002 309.151 1.67457 309.84 1.26148C310.531 0.848383 311.299 0.534921 312.149 0.320099C312.997 0.1066 313.887 -0.000976562 314.817 -0.000976562H331.469C333.509 -0.000976562 335.093 0.404505 336.222 1.2158C337.35 2.02709 337.774 3.21242 337.491 4.77378L335.028 18.3619L335.028 18.3625ZM329.966 4.82012H314.755L312.317 18.2715H327.529L329.966 4.82012ZM403.697 13.9555H389.34L388.558 18.2715H411.286C411.136 19.0977 410.834 19.8094 410.381 20.4058C409.927 21.0033 409.352 21.4925 408.652 21.8752C407.952 22.2581 407.173 22.5412 406.315 22.7242C405.457 22.9076 404.548 22.9996 403.587 22.9996H386.935C386.005 22.9996 385.157 22.8847 384.388 22.6557C383.619 22.4256 382.963 22.1049 382.424 21.6915C381.883 21.2784 381.487 20.7805 381.232 20.1993C380.977 19.617 380.917 18.9597 381.05 18.2245L383.487 4.77411C383.615 4.07039 383.911 3.42725 384.376 2.846C384.842 2.26475 385.419 1.76692 386.11 1.35383C386.799 0.940734 387.572 0.612045 388.427 0.367101C389.282 0.122157 390.158 -0.000645557 391.059 -0.000645557H407.755C409.825 -0.000645557 411.409 0.412449 412.504 1.23897C413.6 2.06516 414.007 3.25943 413.724 4.81979H390.996L390.222 9.08909H404.579L403.697 13.9549L403.697 13.9555ZM447.673 1.00958C447.495 1.99002 447.135 2.73942 446.59 3.25976C446.046 3.78043 445.432 4.14685 444.748 4.36167C444.064 4.57517 443.372 4.70559 442.674 4.75193C441.976 4.79761 441.372 4.82012 440.862 4.82012H435.596L433.167 18.2248C432.856 19.9394 432.251 21.1638 431.353 21.898C430.456 22.6322 428.971 22.9999 426.901 22.9999H424.696L427.99 4.82045H416.423L416.539 4.1773C416.834 2.55604 417.491 1.45412 418.511 0.871885C419.532 0.290639 420.882 1.64535e-05 422.562 1.64535e-05H447.855L447.672 1.00958H447.673ZM469.901 13.9555H455.544L454.762 18.2715H477.49C477.34 19.0977 477.038 19.8094 476.585 20.4058C476.131 21.0033 475.556 21.4925 474.856 21.8752C474.156 22.2581 473.378 22.5412 472.52 22.7242C471.662 22.9076 470.752 22.9996 469.791 22.9996H453.139C452.209 22.9996 451.361 22.8847 450.592 22.6557C449.823 22.4256 449.168 22.1049 448.629 21.6915C448.087 21.2784 447.691 20.7805 447.436 20.1993C447.182 19.617 447.121 18.9597 447.254 18.2245L449.692 4.77411C449.819 4.07039 450.115 3.42725 450.58 2.846C451.046 2.26475 451.623 1.76692 452.315 1.35383C453.004 0.940734 453.776 0.612045 454.631 0.367101C455.486 0.122157 456.362 -0.000645557 457.263 -0.000645557H473.959C476.029 -0.000645557 477.613 0.412449 478.708 1.23897C479.804 2.06516 480.211 3.25943 479.928 4.81979H457.2L456.426 9.08909H470.783L469.901 13.9549L469.901 13.9555ZM543.451 18.3629C543.302 19.1891 542.995 19.8855 542.533 20.4525C542.07 21.0185 541.496 21.4925 540.812 21.8752C540.127 22.2581 539.349 22.5412 538.476 22.7242C537.603 22.9076 536.685 22.9996 535.725 22.9996H519.073C518.143 22.9996 517.294 22.8847 516.525 22.6557C515.756 22.4256 515.101 22.1049 514.561 21.6915C514.021 21.2784 513.63 20.7881 513.388 20.2221C513.145 19.6561 513.091 19.0054 513.224 18.2712L515.686 4.68209C515.808 4.00849 516.095 3.37428 516.549 2.77682C517.002 2.18035 517.574 1.6749 518.263 1.26181C518.954 0.848714 519.723 0.535252 520.572 0.32043C521.42 0.106931 522.311 -0.000645557 523.241 -0.000645557H539.893C541.933 -0.000645557 543.517 0.404836 544.646 1.21613C545.774 2.02742 546.197 3.21275 545.914 4.77411L543.451 18.3622L543.451 18.3629ZM538.39 4.82045H523.178L520.741 18.2718H535.952L538.39 4.82045Z" fill="#AD0000"/>
<path d="M371.908 5.93393C369.58 6.13121 355.801 10.711 353.568 22.9999H346.052C348.708 12.2399 360.051 0 373.196 0.0238324C376.16 0.0291285 376.707 0 380.553 0L376.385 22.9999H368.779L371.907 5.93393H371.908Z" fill="#AD0000"/>
<path d="M505.38 5.93393C503.053 6.13121 489.273 10.711 487.041 22.9999H479.524C482.181 12.2399 493.524 0 506.668 0.0238324C509.632 0.0291285 510.18 0 514.025 0L509.858 22.9999H502.252L505.38 5.93393H505.38Z" fill="#AD0000"/>
</g>
<defs>
<clipPath id="clip0_531_15">
<rect width="193" height="23" fill="white"/>
</clipPath>
<clipPath id="clip1_531_15">
<rect width="338" height="23" fill="white" transform="translate(208)"/>
</clipPath>
</defs>
</svg>
