<svg width="37" height="40" viewBox="0 0 37 40" fill="none" xmlns="http://www.w3.org/2000/svg">
<path fill-rule="evenodd" clip-rule="evenodd" d="M27.9624 1.03684C21.9322 -0.311109 15.6788 -0.311109 9.64867 1.03684L8.99892 1.18059C7.3027 1.55983 5.74482 2.40186 4.49833 3.61316C3.25184 4.82446 2.36555 6.35759 1.93791 8.04226C0.409367 14.0654 0.409367 20.375 1.93791 26.3982C2.34573 28.0048 3.17111 29.4751 4.33036 30.66C5.48961 31.8448 6.94153 32.7021 8.53892 33.1448L9.43017 38.4655C9.45862 38.6345 9.53184 38.7927 9.64221 38.9237C9.75259 39.0548 9.89607 39.1538 10.0577 39.2106C10.2194 39.2674 10.3933 39.2797 10.5614 39.2464C10.7294 39.2132 10.8855 39.1354 11.0133 39.0213L16.2477 34.3389C20.1771 34.5787 24.1206 34.2645 27.9624 33.4055L28.6141 33.2618C30.3103 32.8825 31.8682 32.0405 33.1147 30.8292C34.3612 29.6179 35.2474 28.0848 35.6751 26.4001C37.2035 20.3769 37.2035 14.0674 35.6751 8.04418C35.2473 6.35927 34.3607 4.82596 33.1139 3.61464C31.867 2.40332 30.3087 1.56143 28.6122 1.18251L27.9624 1.03684ZM11.2663 7.88701C10.9101 7.83516 10.5469 7.90686 10.2371 8.09018H10.2102C9.4915 8.51184 8.84367 9.04276 8.29167 9.66759C7.83167 10.1985 7.5825 10.7352 7.51733 11.2527C7.479 11.5593 7.50583 11.8698 7.59592 12.1631L7.63041 12.1823C8.14791 13.7022 8.82258 15.1646 9.64675 16.5408C10.7094 18.4737 12.0172 20.2614 13.5376 21.8595L13.5836 21.9247L13.6564 21.9783L13.7005 22.0301L13.7542 22.0761C15.3579 23.6011 17.1498 24.915 19.0863 25.9861C21.3001 27.1917 22.6437 27.7609 23.4506 27.9986V28.0101C23.6863 28.0829 23.901 28.1155 24.1176 28.1155C24.8048 28.0647 25.4552 27.7854 25.9653 27.322C26.5882 26.77 27.1152 26.1203 27.5254 25.3977V25.3843C27.9107 24.6559 27.7803 23.9698 27.2245 23.504C26.108 22.5285 24.9008 21.662 23.6192 20.9165C22.7606 20.4508 21.8885 20.7325 21.5358 21.204L20.7826 22.1547C20.3954 22.6262 19.6939 22.561 19.6939 22.561L19.6747 22.5725C14.4403 21.2366 13.0431 15.937 13.0431 15.937C13.0431 15.937 12.9779 15.2163 13.4628 14.8483L14.4058 14.0893C14.8582 13.7213 15.1725 12.8512 14.6876 11.9925C13.947 10.7098 13.0823 9.5029 12.1058 8.38918C11.8929 8.12706 11.5942 7.94855 11.2625 7.88509L11.2663 7.88701ZM20.1098 5.58318C19.8557 5.58318 19.6119 5.68414 19.4322 5.86387C19.2525 6.04359 19.1515 6.28734 19.1515 6.54151C19.1515 6.79567 19.2525 7.03943 19.4322 7.21915C19.6119 7.39888 19.8557 7.49984 20.1098 7.49984C22.5344 7.49984 24.5469 8.29143 26.1397 9.80943C26.9581 10.6393 27.5963 11.6226 28.0142 12.6998C28.4339 13.7788 28.6256 14.9308 28.5758 16.0846C28.5705 16.2104 28.59 16.3361 28.6333 16.4544C28.6766 16.5727 28.7427 16.6813 28.828 16.774C29.0002 16.9613 29.2397 17.0725 29.4938 17.0832C29.748 17.0938 29.996 17.0031 30.1833 16.8309C30.3705 16.6588 30.4817 16.4193 30.4924 16.1651C30.5519 14.7458 30.3163 13.3296 29.8005 12.0059C29.2825 10.676 28.4971 9.46657 27.4928 8.45243L27.4737 8.43326C25.4976 6.54534 22.9963 5.58318 20.1098 5.58318ZM20.0447 8.73418C19.7905 8.73418 19.5467 8.83514 19.367 9.01487C19.1873 9.19459 19.0863 9.43834 19.0863 9.69251C19.0863 9.94668 19.1873 10.1904 19.367 10.3702C19.5467 10.5499 19.7905 10.6508 20.0447 10.6508H20.0772C21.8253 10.7754 23.0979 11.3581 23.9892 12.3145C24.9034 13.2997 25.3768 14.5244 25.3404 16.0386C25.3346 16.2928 25.4299 16.5388 25.6055 16.7227C25.7811 16.9065 26.0225 17.0131 26.2767 17.019C26.5309 17.0248 26.777 16.9295 26.9608 16.7539C27.1447 16.5783 27.2512 16.3368 27.2571 16.0827C27.3031 14.0951 26.6629 12.3797 25.3941 11.0112V11.0073C24.0965 9.61584 22.3159 8.87984 20.1731 8.73609L20.1405 8.73226L20.0447 8.73418ZM20.0082 11.9446C19.88 11.9333 19.7508 11.9479 19.6283 11.9876C19.5058 12.0274 19.3926 12.0914 19.2955 12.1758C19.1983 12.2603 19.1191 12.3634 19.0627 12.4791C19.0062 12.5949 18.9737 12.7208 18.967 12.8494C18.9603 12.9779 18.9796 13.1065 19.0237 13.2275C19.0678 13.3485 19.1358 13.4593 19.2237 13.5534C19.3116 13.6475 19.4175 13.7229 19.5352 13.7751C19.6529 13.8274 19.7799 13.8554 19.9086 13.8574C20.7097 13.8996 21.2215 14.1411 21.5435 14.465C21.8674 14.7908 22.1089 15.3141 22.153 16.1325C22.1554 16.2611 22.1836 16.3879 22.2361 16.5054C22.2885 16.6228 22.3641 16.7285 22.4582 16.8162C22.5524 16.9038 22.6632 16.9716 22.7841 17.0155C22.905 17.0594 23.0335 17.0785 23.162 17.0717C23.2904 17.0648 23.4162 17.0322 23.5318 16.9758C23.6474 16.9193 23.7504 16.8402 23.8347 16.7431C23.9191 16.646 23.983 16.5328 24.0227 16.4105C24.0624 16.2882 24.0771 16.1591 24.0658 16.0309C24.0045 14.8809 23.6442 13.8651 22.9062 13.1176C22.1645 12.3701 21.1544 12.0059 20.0082 11.9446Z" fill="#AD0000"/>
</svg>
